# xmcd
#
# Track frame offsets:
#	150
#	13086
#	26026
#	40885
#	55963
#	66862
#	79534
#	90513
#	101952
#	111743
#
# Disc length: 1646 seconds
#
# Revision: 1
# Processed by: cddbd v1.5.2PL0 Copyright (c) Steve Scherf et al.
# Submitted via: audiograbber 1.83.01
#
DISCID=85066c0a
DTITLE=Various Artist - History Of Country Music Disc 2
DYEAR=2017
DGENRE=Country
TTITLE0=Glenn Campbell - Rhinestone Cowboy
TTITLE1=Hank Williams - I'm So Lonesome I Could Cry
TTITLE2=Loretta Lynn - Coal Miner's Daughter
TTITLE3=Kenny Rogers - I Just Dropped In (To See What Condition My Condition Is
TTITLE3=In)
TTITLE4=Faron Young - Hello Walls
TTITLE5=Kitty Wells - Making Believe
TTITLE6=George Jones - Tender Years
TTITLE7=Willie Nelson - Broken Promises
TTITLE8=Charlie Pride - Kiss An Angel Good Morning
TTITLE9=Donna Fargo - Happiest Girl In The USA
EXTD=
EXTT0=
EXTT1=
EXTT2=
EXTT3=
EXTT4=
EXTT5=
EXTT6=
EXTT7=
EXTT8=
EXTT9=
PLAYORDER=
